<?xml version="1.0" standalone="no"?>
<!DOCTYPE svg PUBLIC "-//W3C//DTD SVG 1.1//EN" "http://www.w3.org/Graphics/SVG/1.1/DTD/svg11.dtd" >
<!--
2013-9-30: Created.
-->
<svg>
<metadata>
Created by iconfont
</metadata>
<defs>

<font id="iconfont" horiz-adv-x="1024" >
  <font-face
    font-family="iconfont"
    font-weight="500"
    font-stretch="normal"
    units-per-em="1024"
    ascent="896"
    descent="-128"
  />
    <missing-glyph />
    
    <glyph glyph-name="kouhong" unicode="&#13377;" d="M704.24286 574.504494l0-608.428201q0-17.383663-6.646695-33.744757t-19.940084-30.165768-32.210905-21.985221-44.481726-8.180547l-116.572798 0q-52.150989 0-76.181346 29.654484t-24.030357 69.534651l0 603.315358 320.063911 0zM639.821051 640.97144l-192.24286 0 0 108.392251q0 17.383663 2.045137 27.609347t7.157979 17.383663 13.293389 13.804673 19.4288 16.872379q32.722189 29.654484 52.662273 44.481726t36.301178 19.940084q23.519073 8.180547 36.301178 6.13541t18.406231-11.248252 6.13541-23.519073 0.511284-29.654484l0-190.197723z"  horiz-adv-x="1024" />

    
    <glyph glyph-name="aixin" unicode="&#58929;" d="M706.964902 801.4506c-76.691683 0-148.002822-38.47529-194.936761-101.911064-46.908356 63.456241-118.204146 101.911064-194.939831 101.911064-138.251737 0-250.727415-122.970706-250.727415-274.139637 0-90.183975 40.282448-153.445788 72.671113-204.276477 94.114494-147.647735 330.74996-331.380316 340.773244-339.127767 9.658987-7.463995 20.948101-11.20111 32.209586-11.20111 11.290137 0 22.560832 3.737114 32.203446 11.20111 10.038634 7.747451 246.693542 191.480033 340.780407 339.127767 32.397874 50.830689 72.699766 114.092501 72.699766 204.276477C957.697433 678.479895 845.211523 801.4506 706.964902 801.4506L706.964902 801.4506 706.964902 801.4506zM839.218018 357.926158C749.634724 217.342306 512.014838 33.726382 512.014838 33.726382S274.423605 217.342306 184.810634 357.926158c-33.051767 51.893904-62.648852 101.224426-62.648852 169.384805 0 117.693516 87.264483 213.139332 194.925505 213.139332 79.56615 0 147.870816-52.200896 178.168866-126.932947l0 0.369414 0.078795 0c2.260483-7.786337 8.842389-13.472849 16.678868-13.472849 7.865131 0 14.442944 5.686513 16.683984 13.472849l0.234337 0c30.371728 74.512041 98.578156 126.562511 178.032766 126.562511 107.637486 0 194.925505-95.445816 194.925505-213.139332C901.89143 459.151607 872.294344 409.826202 839.218018 357.926158L839.218018 357.926158 839.218018 357.926158zM839.218018 357.926158"  horiz-adv-x="1024" />

    
    <glyph glyph-name="discountticket" unicode="&#58887;" d="M1295.603162-127.999987 117.363137-127.999987l0 25.691098c0 49.673205-41.119578 90.066014-91.6719 90.066014L0-12.242876 0 780.192385l25.691237 0c50.552322 0 91.6719 40.417991 91.6719 90.116517L117.363137 896l1178.240025 0 0-25.691098c0-49.698526 41.119578-90.116517 91.672599-90.116517L1412.966999 780.192385l0-792.435261-25.691237 0c-50.553021 0-91.672599-40.392809-91.672599-90.066014L1295.603162-127.999987 1295.603162-127.999987zM166.385398-76.619051l1080.194804 0c10.741067 57.527482 56.776092 102.987387 115.00712 113.474261L1361.587322 731.0943c-58.231028 10.486873-104.266053 55.972659-115.00712 113.524764L166.385398 844.619064c-10.725259-57.552104-56.774693-103.03789-115.005021-113.524764l0-694.239091C109.610705 26.368336 155.660139-19.091569 166.385398-76.619051L166.385398-76.619051zM1213.791673-35.425747 199.112372-35.425747l-7.137582 14.100431c-17.937406 35.500446-47.692952 64.828325-83.795238 82.640802l-14.324408 7.049446L93.855144 699.558556l14.350429 7.050845c36.089276 17.735814 65.831811 47.090413 83.756906 82.640802l7.124711 14.124354 1014.730504 0 7.123312-14.100431c17.963987-35.54969 47.768777-64.928911 83.845742-82.664725l14.350429-7.050845 0-631.193623-14.324548-7.049446c-36.102846-17.812338-65.907636-47.164978-83.871623-82.666684L1213.791673-35.425747 1213.791673-35.425747zM230.070898 15.955189l952.786171 0c20.5721 34.397912 50.025887 63.448654 84.90043 83.746134L1267.7575 668.198383c-34.900565 20.27146-64.354351 49.32416-84.90043 83.795099L230.083909 751.993481c-20.522157-34.470939-49.949922-63.523639-84.847829-83.795099l0-568.49692C180.121116 79.403842 209.53713 50.353101 230.070898 15.955189L230.070898 15.955189zM706.483499 57.249639c-182.466082 0-330.912814 146.566088-330.912814 326.725395 0 180.18323 148.446733 326.77394 330.912814 326.77394 182.466781 0 330.911415-146.59071 330.911415-326.77394C1037.394915 203.815727 888.950281 57.249639 706.483499 57.249639L706.483499 57.249639zM706.483499 659.367899c-154.128679 0-279.532438-123.534865-279.532438-275.392864 0-151.832677 125.403759-275.34306 279.532438-275.34306 154.141549 0 279.533137 123.510383 279.533137 275.34306C986.016637 535.833033 860.625049 659.367899 706.483499 659.367899L706.483499 659.367899zM567.971744 211.268358 531.894779 247.845317 844.944053 556.68255 881.023676 520.102793 567.971744 211.268358ZM608.639172 396.895149c-46.537957 0-84.395679 37.506579-84.395679 83.593646 0 46.086367 37.857723 83.592946 84.395679 83.592946 46.538516 0 84.397638-37.506579 84.397638-83.592946C693.03681 434.401728 655.177688 396.895149 608.639172 396.895149L608.639172 396.895149zM608.639172 512.702763c-18.201113 0-33.015443-14.452134-33.015443-32.213969 0-17.761835 14.814329-32.21271 33.015443-32.21271 18.201673 0 33.016562 14.450875 33.016562 32.21271C641.655734 498.250629 626.840845 512.702763 608.639172 512.702763L608.639172 512.702763zM804.301246 203.867629c-46.539216 0-84.371757 37.50602-84.371757 83.593086 0 46.086926 37.832541 83.592946 84.371757 83.592946s84.371757-37.50602 84.371757-83.592946C888.673003 241.373648 850.840462 203.867629 804.301246 203.867629L804.301246 203.867629zM804.301246 319.672725c-18.186704 0-32.989422-14.450176-32.989422-32.21201 0-17.763234 14.802718-32.214808 32.989422-32.214808 18.189502 0 32.99208 14.451575 32.99208 32.214808C837.293326 305.222549 822.490748 319.672725 804.301246 319.672725L804.301246 319.672725zM1222.949238 358.283937 1082.103429 358.283937 1082.103429 409.664873 1222.949238 409.664873 1222.949238 358.283937ZM330.862871 358.283937 190.01846 358.283937 190.01846 409.664873 330.862871 409.664873 330.862871 358.283937Z"  horiz-adv-x="1413" />

    
    <glyph glyph-name="shang" unicode="&#58934;" d="M122.88 209.92l384 384 384-384c11.776-11.776 32.256-12.288 44.544 0 12.288 12.288 12.288 32.256 0 44.544l-401.92 401.92c-7.168 7.168-16.896 9.728-26.112 8.704-9.728 1.536-19.456-1.536-26.624-8.704l-401.92-401.92c-11.776-11.776-12.288-32.256 0-44.544 11.776-12.288 31.744-12.288 44.032 0z"  horiz-adv-x="1024" />

    
    <glyph glyph-name="lanzi" unicode="&#58916;" d="M927.942004 607.954003h-218.194363l125.43216 125.43216A95.322042 95.322042 0 0 1 700.404225 868.16174l-256.655959-256.655959c-1.11993-1.11993-1.887882-2.39985-2.911818-3.551778H95.994a95.994 95.994 0 0 1-95.994-95.994001v-127.992a95.994 95.994 0 0 1 95.994-95.994v-319.980002a95.994 95.994 0 0 1 95.994001-95.994h639.960002a95.994 95.994 0 0 1 95.994001 95.994v319.980002a95.994 95.994 0 0 1 95.994 95.994v127.992a95.994 95.994 0 0 1-95.994 95.994001z m-436.452722-26.014374l238.481095 238.481095a40.989438 40.989438 0 1 0 57.980376-58.012375l-238.449097-238.481094a41.053434 41.053434 0 0 0-58.012374 58.012374zM863.946003-32.006a31.998 31.998 0 0 0-31.998-31.998h-95.994v191.988001a31.998 31.998 0 1 1-63.996 0v-191.988001h-127.992001v191.988001a31.998 31.998 0 1 1-63.996 0v-191.988001h-127.992001v191.988001a31.998 31.998 0 1 1-63.996 0v-191.988001H191.988001a31.998 31.998 0 0 0-31.998 31.998v319.980002h703.956002v-319.980002z m95.994001 415.974002a31.998 31.998 0 0 0-31.998-31.998H95.994a31.998 31.998 0 0 0-31.998 31.998v127.992a31.998 31.998 0 0 0 31.998 31.998001h319.85201a95.258046 95.258046 0 0 1 162.677832-67.227799l67.227799 67.227799H927.942004a31.998 31.998 0 0 0 31.998-31.998001v-127.992z"  horiz-adv-x="1024" />

    
    <glyph glyph-name="jian" unicode="&#58633;" d="M172.078 596.352l-43.797-45.585 382.784-382.785 384.656 384.656-48.036 47.38-339.635-339.635z"  horiz-adv-x="1024" />

    
    <glyph glyph-name="yumaoqiupai" unicode="&#58884;" d="M890.780383 57.568868l-2.589519 1.845929-18.128493 12.026026c-1.530975 1.22068-3.348949 1.517929-5.179037 1.22068-0.461249-0.149091-1.071589-0.298181-1.682861-0.447272l-0.147227-0.149091-175.265395 175.414486c-0.460317 0.447272-0.922498 0.744522-1.532838 1.071589-0.149091 0-0.149091 0-0.297249 0.14909-2.738609 2.737677-7.47317 2.737677-10.359006-0.14909l-1.383748-1.369771c-43.89136 40.69057-80.458641 146.30267-97.232273 199.794537v0.297249c-2.27736 9.615416-5.940331 29.112748-6.399716 51.525734v1.816111c0 4.733629 0.31309 9.615416 0.460317 14.488817 0 10.820255-0.758499 21.80451-2.292269 33.070173-8.988303 67.363822-43.741337 134.129417-97.69259 187.91667C359.358821 847.80437 198.55988 868.83454 112.75727 783.032863S48.134853 536.43038 160.011556 424.711154c65.068757-65.071553 146.912078-99.362406 220.674684-99.658723h7.323148c26.358298 0.922498 50.141054-3.661108 60.962241-6.25249h0.297249c53.490935-16.607768 158.953944-53.48814 199.346333-97.245318l-1.36977-1.369771c-2.59045-2.59045-2.738609-6.696966-0.922499-9.435575 0.462181-1.071589 0.922498-2.143178 1.83102-2.888632l174.819055-174.967214c-2.292269-2.589518-2.59045-6.398785-0.609409-9.286484l3.645267-5.358878 8.231669-11.577822 2.59045-3.662039c2.292269-3.483131 7.024034-4.25747 10.372051-1.965202l1.057612 0.924362 43.741337 44.025542c0.31309 0.298181 0.609408 0.624317 0.922499 1.071589 2.27736 3.50829 1.22068 8.063941-2.143178 10.504369zM549.253737 571.793754l0.298182-0.298181-0.298182-0.149091c1.979179-8.393804 3.497108-16.7727 4.717788-25.151595 2.59045-19.050992 2.901677-37.663097 0.759431-55.017251l-3.960221-3.959289-42.816976 42.812316 41.299978 41.315819v0.447272z m-287.588438 6.712807l-41.464909-41.451864-41.91125 41.764023 41.614 41.599091 41.762159-41.91125z m-36.434031 47.239377l41.463977 41.46491 41.748182-41.927091-41.450932-41.449068-41.762159 41.911249z m41.761227-52.582414l42.67068-42.507612-41.599091-41.619591-42.520658 42.677203 41.449069 41.45z m5.343036 5.343037l41.450001 41.598159 42.669748-42.67068-41.612136-41.450932-42.507613 42.523453z m46.779992 46.777196l41.449069 41.463978 42.520657-42.520658-41.299978-41.450932-42.669748 42.507612z m42.669748-53.191822l41.761228-41.749113-41.449069-41.605614-41.91125 41.918704 41.599091 41.436023z m5.342105 5.343037l41.301842 41.45 41.911249-41.912181-41.449068-41.286001-41.764023 41.748182z m88.541219-5.641218l41.761227-41.762159-41.449068-41.441614-41.762159 41.754704 41.449068 41.449069z m46.942128-47.090287l42.833748-42.842134-41.46491-41.435091-42.67068 42.83468 41.301842 41.442545z m-41.599091 52.269324l41.449068 41.614932 41.764023-41.764023-41.614932-41.45-41.598159 41.599091z m-5.343969 5.343968l-41.911249 41.91125 41.614932 41.449068 41.761227-41.762158-41.46491-41.59816z m-47.238445 47.238446l-42.52159 42.521589 41.450001 41.598159 42.67068-42.654839-41.599091-41.464909z m-47.864626 47.864626l-41.749114 41.912181 41.45 41.449069 41.91125-41.912181-41.612136-41.449069z m-5.327196-5.343037l-41.450932-41.449068-41.762159 41.911249 41.449068 41.449069 41.764023-41.91125z m-88.541219 5.789377l-41.912181 41.762159 41.449068 41.450932 41.912182-41.748181-41.449069-41.46491z m-5.343968-5.327196l-41.449069-41.599091-41.912181 41.896341 41.599091 41.464909 41.762159-41.762159z m-88.689378 5.640287l-41.764023 41.748181 41.599091 41.46491 41.764023-41.764023-41.599091-41.449068z m-5.342105-5.343969l-41.449068-41.449068-41.764023 41.599091 41.614 41.614 41.599091-41.764023z m5.342105-5.327196l41.912181-41.762159-41.614931-41.599091-41.761228 41.912182 41.463978 41.449068z m42.209431-135.794573l-41.599091-41.606545-41.762159 41.919635 41.449069 41.449069 41.912181-41.762159z m5.327196-5.343968l42.522521-42.515067-41.450932-41.612137-42.67068 42.683726 41.599091 41.443478z m47.864626-47.842263l41.91125-41.91125L268.363197 395.150202l-41.748182 41.762159 41.449069 41.614z m5.329991 5.328128l41.448137 41.456523 41.912181-41.903795-41.599091-41.463978-41.762159 41.91125z m88.703355-5.625378l41.762159-41.764022-41.614-41.612137-41.762159 41.762159 41.614932 41.614z m5.329059 5.179037l41.463978 41.591637 41.746318-41.738864-41.449068-41.464909-41.761228 41.612136z m88.554265-5.507036l42.67068-42.80393-41.449069-41.463978-42.833748 42.833748 41.612137 41.435092z m47.997876-47.982967l20.882011-20.89692c-5.029946-7.47317-10.820255-14.169204-17.219972-20.568921v-0.149091c-7.768555-7.621328-15.999292-14.497204-24.839437-20.122581l-20.271671 20.122581 41.449069 41.614932z m5.343968 5.179037l41.449069 41.436023 1.682861-1.519793c-4.122357-21.936828-11.892776-41.91125-23.32244-59.592471l-19.810422 19.676241z m35.958805 151.34007l-37.492575 37.477666 15.852065 15.864179c9.154167-17.234881 16.461473-35.213351 21.64051-53.341845z m-25.287641 60.351902l-17.533062-17.546108-41.911249 41.777068 25.748889 25.747026c12.964365-15.999292 24.244938-32.771992 33.694491-49.977986z m-59.44338 78.777643c7.47317-7.457329 14.480431-15.076794 21.030171-23.009348l-26.209207-26.209207-42.670681 42.520657 26.358298 26.374139a428.929184 428.929184 0 0 0 21.491419-19.676241z m-27.280796 24.542188l-25.911957-25.911958-41.762159 41.91125 17.830311 17.831243c17.070881-9.437439 33.843581-20.718012 49.842873-33.830535z m-56.690793 37.490711l-16.312383-16.16236-38.711391 38.569755c18.440652-5.335582 36.880371-12.806888 55.023774-22.407395z m-21.641442-21.491419l-41.463978-41.612137-41.912181 41.91125 41.614932 41.464909 41.761227-41.764022zM231.183712 820.217006c24.379119 1.98011 50.142918 0 75.889944-6.398785 0.462181 0 0.759431 0 1.07159-0.155613l-41.91125-41.91125-41.761227 41.762159 6.711875 6.703489z m29.723088-53.809616l-41.315819-41.436023-41.748181 41.749113 41.300909 41.456523 41.763091-41.769613z m-50.752326 50.758849l3.810198-3.652722-41.464909-41.449068-21.936828 21.936828c17.82938 11.429663 37.951961 19.206605 59.591539 23.164962z m-86.724176-44.656382c6.398785 6.399717 13.260683 12.204003 20.732921 17.234881l23.008416-23.02519-41.449068-41.448136-22.56394 22.398077c5.790309 8.841076 12.651275 17.070881 20.271671 24.840368z m-24.229097-31.551312l21.177397-21.031102-41.598159-41.599091-1.368838 1.368839c3.645267 22.102691 10.818391 42.83468 21.7896 61.260422z m-23.472461-76.338148l3.051699 3.184018 41.748182-41.746318-38.251074-38.251074c-6.398785 26.196162-8.676145 52.271187-6.548807 76.813374z m50.142918-43.889496l41.761227-41.912181L126.167975 537.354742 84.254862 579.115969l41.614932 41.614932z m-36.420986-57.316974l31.390107-31.387313-12.502184-12.502184c-7.619465 14.316431-14.020113 29.109952-18.887923 43.888565z m22.548099-50.899553l14.170136 14.169204 41.91125-41.756568-22.086851-22.114805c-13.259751 15.86511-24.394028 32.47381-33.994535 49.702169z m58.522745-77.11901c-7.010057 6.995148-13.559796 14.169204-19.811354 21.491419l22.563009 22.711167 42.67068-42.686521-22.561145-22.561145c-7.769487 6.550671-15.390816 13.573773-22.86119 21.04508z m28.648703-25.747958l22.102692 21.937759 41.764022-41.762159-13.722864-13.871954a333.812135 333.812135 0 0 0-50.14385 33.696354z m57.003884-37.35653L268.363197 384.493947l30.182473-30.184337c-14.18225 4.882719-28.501476 10.837028-42.371567 17.979402z m57.761451-22.712099l-40.228388 40.244229 41.449068 41.463978 41.762159-41.761227-40.69057-40.692434c-0.773408 0.299113-1.532838 0.447272-2.292269 0.745454z m90.684397-8.513077c-25.599799-2.59045-52.582414-0.773408-79.86321 5.774468l37.48978 37.50562 43.131929-43.131929c-0.149091 0-0.461249-0.148159-0.758499-0.148159z m-37.030394 48.460989l41.599091 41.58325 42.670681-42.80393-41.449069-41.46491-42.819771 42.68559z m49.531647-46.64581l40.081161 40.09607 18.887924-18.902832c-17.831244-10.685142-37.788893-17.680289-58.969085-21.193238z m229.054511-92.811735c-1.05668-1.071589-1.667952-2.292269-1.98011-3.662039-47.997876 38.399233-134.113576 69.207887-184.403721 85.043179-0.758499 0.596363-1.367907 1.994088-1.532839 3.512948 0 0-0.759431 3.512949 3.362927 5.178106 0.149091 0.150022 0.149091 0 0.298181 0.150022 20.882011 8.542895 39.931139 21.046011 56.243522 37.327644l0.14909 0.14909c16.460541 16.460541 29.260907 35.986759 37.952893 57.62727 1.830088 2.888632 4.716856 2.292269 4.716856 2.292269 1.518861-0.148159 2.739541-0.624317 3.511085-1.368839 15.687133-50.156895 46.479947-136.419822 84.881043-184.284449-1.219748-0.298181-2.276428-0.893612-3.198927-1.966133z m187.453557-206.520389L662.784415 214.408521l18.291561 18.426674 170.993016-170.979038-18.440652-18.307402z m10.224824-24.674505l-5.491196 8.065805 28.501476 28.664544 7.916715-5.507037-30.926995-31.224244z"  horiz-adv-x="1095" />

    
    <glyph glyph-name="zhanghu" unicode="&#58888;" d="M391.593936 326.372108h240.764722c206.095782 0 373.170567-157.645324 373.170566-352.11103v-22.706926c0-76.640486-167.087078-79.554152-373.170566-79.554152H391.593936C185.510447-128 18.423369-127.913942 18.423369-48.445848v22.756102c0 194.477999 167.074784 352.061854 373.170567 352.061854zM505.38674 896c157.055215 0 284.371364-123.468143 284.371363-275.777892S662.49113 344.419627 505.38674 344.419627 221.064552 467.88777 221.064552 620.19752 348.380701 896 505.38674 896z"  horiz-adv-x="1024" />

    
    <glyph glyph-name="car_hy" unicode="&#58904;" d="M740.288 347.744c-54 0-97.76-44.336-97.76-99.04s43.776-99.04 97.76-99.04 97.76 44.336 97.76 99.04-43.76 99.04-97.76 99.04z m0-154.064c-30 0-54.304 24.64-54.304 55.024s24.32 55.024 54.304 55.024c30 0 54.304-24.64 54.304-55.024 0.016-30.4-24.304-55.024-54.304-55.024z m-358.464 22H620.8v44.016H381.824v-44.016z m456.224 220.096S620.8 646.448 229.744 523.808c0 0-13.088-3.808-31.392-12.208l-33.776 34.224v-52.48c-14.864-9.392-30.16-21.136-43.456-35.552 0 0-86.896 6.288-86.896-88.048v-66.032s-12.416-91.184 108.624-88.048V259.67999999999995h22.368c-0.4-3.616-0.64-7.28-0.64-11.008 0-54.704 43.776-99.04 97.76-99.04s97.76 44.336 97.76 99.04-43.776 99.04-97.76 99.04c-50.32 0-91.712-38.528-97.12-88.032-88.496 2.016-86.928 31.568-86.928 31.568v75.76c0 60.288 57.216 49.664 57.216 49.664 39.472 38.4 120.4 75.76 120.4 75.76 355.248 99.824 582.128-100.704 582.128-100.704 61.904-1.36 108.624-60.56 108.624-60.56v-53.76c-2.816-25.136-86.896-17.744-86.896-17.744v-44.016h65.168s62.08-25.152 65.184 44.016v66.032c0.016 0.032-6.192 72.352-152.064 110.08zM262.336 303.72799999999995c30 0 54.304-24.64 54.304-55.024s-24.32-55.024-54.304-55.024c-30 0-54.304 24.64-54.304 55.024s24.32 55.024 54.304 55.024z"  horiz-adv-x="1024" />

    
    <glyph glyph-name="up" unicode="&#58931;" d="M814.4799999999998 576.4370000000001c9.570999999999998 5.329070518200751e-15 12.392000000000005-6.016999999999996 6.264000000000011-13.371999999999998l-297.7609999999998-357.39300000000014c-6.127999999999995-7.3560000000000025-16.153999999999996-7.35600000000001-22.281-1.0658141036401503e-14l-297.7610000000003 357.39199999999977c-6.128000000000003 7.354999999999997-3.309000000000008 13.371999999999991 6.2639999999999905 13.372000000000003l605.2749999999999 3.410605131648481e-13z"  horiz-adv-x="1024" />

    
    <glyph glyph-name="dingbu" unicode="&#58917;" d="M225.792 644.096H798.72V748.544H225.792v-104.448z m624.64-624.64L512 644.096l-338.432-624.64h676.864z"  horiz-adv-x="1024" />

    
    <glyph glyph-name="xiyiji" unicode="&#58899;" d="M861.090909 896H162.909091C124.416 896 93.090909 864.674909 93.090909 826.181818v-884.363636c0-38.493091 31.325091-69.818182 69.818182-69.818182h698.181818c38.493091 0 69.818182 31.325091 69.818182 69.818182V826.181818c0 38.493091-31.325091 69.818182-69.818182 69.818182zM162.909091 849.454545h698.181818c12.846545 0 23.272727-10.449455 23.272727-23.272727v-133.818182H376.250182V849.454545h-46.545455v-157.090909h-46.545454V849.454545h-46.545455v-157.090909H139.636364V826.181818c0 12.823273 10.449455 23.272727 23.272727 23.272727z m698.181818-930.90909H162.909091c-12.823273 0-23.272727 10.426182-23.272727 23.272727V645.818182h744.727272V-58.181818a23.272727 23.272727 0 0 0-23.272727-23.272727zM507.159273 512c-128.325818 0-232.727273-104.401455-232.727273-232.727273s104.401455-232.727273 232.727273-232.727272 232.727273 104.401455 232.727272 232.727272-104.401455 232.727273-232.727272 232.727273z m0-418.909091c-102.656 0-186.181818 83.525818-186.181818 186.181818s83.502545 186.181818 186.181818 186.181818 186.181818-83.502545 186.181818-186.181818-83.525818-186.181818-186.181818-186.181818z"  horiz-adv-x="1024" />

    
    <glyph glyph-name="weixin-copy" unicode="&#58959;" d="M664.25 527.4580000000001c10.015 0 19.892-0.733 29.673-1.796-26.649 122.81-159.358 214.078-310.826 214.078-169.353 0-308.086-114.233-308.086-259.274 0-83.708 46.165-152.46 123.282-205.785l-30.809-91.73 107.689 53.455c38.558-7.537 69.46-15.309 107.924-15.309 9.663 0 19.231 0.471 28.753 1.226-6.025 20.366-9.522 41.723-9.522 63.862 0.001 133.181 115.58 241.271 261.922 241.271zM498.629 610.126c23.2 0 38.557-15.12 38.557-38.062 0-22.846-15.357-38.156-38.557-38.156-23.107 0-46.261 15.31-46.261 38.156 0 22.942 23.154 38.062 46.261 38.062zM283.015 533.909c-23.107 0-46.403 15.31-46.403 38.156 0 22.942 23.296 38.062 46.403 38.062 23.082 0 38.463-15.12 38.463-38.062 0-22.847-15.381-38.156-38.463-38.156zM945.447 289.84900000000005c0 121.888-123.258 221.237-261.684 221.237-146.578 0-262.015-99.349-262.015-221.237 0-122.065 115.437-221.201 262.015-221.201 30.666 0 61.617 7.609 92.426 15.263l84.514-45.787-23.179 76.171c61.856 45.929 107.925 106.803 107.925 175.554zM598.803 328.006c-15.332 0-30.809 15.097-30.809 30.502 0 15.191 15.475 30.477 30.809 30.477 23.296 0 38.558-15.286 38.558-30.477 0-15.405-15.263-30.502-38.558-30.502zM768.251 328.006c-15.213 0-30.595 15.097-30.595 30.502 0 15.191 15.381 30.477 30.595 30.477 23.107 0 38.558-15.286 38.558-30.477 0-15.405-15.451-30.502-38.558-30.502z"  horiz-adv-x="1024" />

    
    <glyph glyph-name="qunzi" unicode="&#58967;" d="M220.03169-70.053355a16.556184 16.556184 0 0 0-16.556185 16.556184V41.700889c0 46.026192 20.860792 124.502506 45.032822 215.230396 26.324333 99.337106 56.125465 211.256912 56.125464 279.965077 0 126.489248-82.780922 327.315764-82.780921 329.302506A16.556184 16.556184 0 0 0 240.395796 889.046403s60.430073-12.251576 102.482781 5.629102a16.556184 16.556184 0 0 0 19.370736-4.966855c0-0.993371 82.780922-101.323848 152.316896-101.323848a16.556184 16.556184 0 0 0 0-33.112369c-72.681649 0-146.687793 77.317381-170.528699 104.469523a219.866128 219.866128 0 0 0-81.456427-7.284721C286.256427 792.523848 337.74616 643.352627 337.74616 537.227486c0-73.012773-29.138884-182.118027-57.118836-288.408731C257.945352 163.719968 236.587874 83.256912 236.587874 41.700889v-95.19806a16.556184 16.556184 0 0 0-16.556184-16.556184zM803.96831-70.053355a16.556184 16.556184 0 0 0-16.556184 16.556184V41.700889c0 41.556023-21.357478 122.019078-43.873888 207.117866-28.145513 105.95958-57.118836 215.230396-57.118836 288.408731 0 106.125141 52.151981 255.296362 74.999515 315.395311a220.197251 220.197251 0 0 0-81.125303 7.119159c-23.013096-27.648828-93.045756-104.303961-165.561844-104.303961a16.556184 16.556184 0 0 0 0 33.112369c58.277769 0 125.661439 72.847211 146.687793 100.827162a16.556184 16.556184 0 0 0 19.70186 5.297979C723.339693 876.629264 782.941956 888.880841 782.941956 889.046403a16.556184 16.556184 0 0 0 18.708489-22.516411c0-1.986742-82.780922-202.813258-82.780922-329.302506 0-68.708165 29.801132-180.959095 56.125465-279.965077 24.172029-91.059014 45.032821-169.700889 45.032821-215.230396v-95.19806a16.556184 16.556184 0 0 0-16.059499-16.887308zM511.917219 371.665643a274.83266 274.83266 0 0 0-194.866289 80.463055 8.278092 8.278092 0 0 0 11.754891 11.754891 259.435408 259.435408 0 0 1 366.388358 0 8.278092 8.278092 0 1 0 11.754891-11.754891 274.83266 274.83266 0 0 0-195.031851-80.463055zM277.978335-128a74.502829 74.502829 0 0 0-74.50283 74.502829 16.556184 16.556184 0 1 0 33.112369 0 41.390461 41.390461 0 1 1 82.780921 0 16.556184 16.556184 0 1 0 33.112369 0 74.502829 74.502829 0 0 0-74.502829-74.502829zM393.871625-128a74.502829 74.502829 0 0 0-74.50283 74.502829 16.556184 16.556184 0 1 0 33.112369 0 41.390461 41.390461 0 1 1 82.780922 0 16.556184 16.556184 0 1 0 33.112368 0 74.502829 74.502829 0 0 0-74.502829-74.502829zM514.235085-128a74.502829 74.502829 0 0 0-74.50283 74.502829 16.556184 16.556184 0 0 0 33.112369 0 41.390461 41.390461 0 0 1 82.780922 0 16.556184 16.556184 0 0 0 33.112368 0 74.502829 74.502829 0 0 0-74.502829-74.502829zM630.128375-128a74.502829 74.502829 0 0 0-74.502829 74.502829 16.556184 16.556184 0 0 0 33.112368 0 41.390461 41.390461 0 0 1 82.780922 0 16.556184 16.556184 0 0 0 33.112369 0 74.502829 74.502829 0 0 0-74.50283-74.502829zM746.021665-128a74.502829 74.502829 0 0 0-74.502829 74.502829 16.556184 16.556184 0 0 0 33.112369 0 41.390461 41.390461 0 0 1 82.780921 0 16.556184 16.556184 0 1 0 33.112369 0 74.502829 74.502829 0 0 0-74.50283-74.502829z"  horiz-adv-x="1024" />

    
    <glyph glyph-name="weibo" unicode="&#58912;" d="M635.35 363.84c-24.41 22.64-56.05 39.4-95.37 50.27-39.32 10.41-80.91 13.58-125.65 9.05-67.8-7.25-124.3-28.53-169-65.21-44.75-36.23-65.09-77-60.57-121.82 2.72-29.44 16.27-55.7 40.68-78.35s56.05-39.4 95.37-50.27 80.91-14 125.66-9.5c67.8 7.24 124.3 28.52 169 65.21s65.08 77.44 60.53 122.27c-2.68 29.44-16.24 55.7-40.65 78.35zM531.84 299.08c-14.46 27.62-38.41 45.74-72.31 54.79-32.09 8.61-64.19 5.44-96.28-8.6q-47.46-21.06-69.15-63.86c-14.47-29-15.37-57.51-3.17-86 12.21-28.08 34.81-47.55 67.35-58 33.9-11.32 68.25-9.51 102.6 5.44 34.35 14.49 58.76 37.59 72.32 68.83 14.01 30.79 13.56 59.77-1.36 87.4z m-121.13-93.75c-6.78-10.41-16.27-17.66-28.93-22.19q-18.3-6.1-33.9 1.36c-10.39 5-17.17 12.68-19.88 23.1-2.72 10.87-0.91 21.28 5.87 31.7 6.33 10.42 15.82 17.21 27.57 21.28a47.17 47.17 0 0 0 33.45-0.45c10.85-4.53 17.63-12.23 20.79-23.1s1.32-21.28-4.97-31.7zM453.65 261a17.27 17.27 0 0 0-10.4-9.06 21.56 21.56 0 0 0-13.11 0c-9 4.53-10.84 11.32-5.87 20.83a19.75 19.75 0 0 0 23.05 9.06 13.92 13.92 0 0 0 8.14-8.61c1.35-4.03 0.45-8.11-1.81-12.22zM801.23 337.57c-10.39 16.3-22.6 28.53-36.61 37.59a194.5 194.5 0 0 1-47 21.74c-3.61 1.36-6.33 2.26-7.68 2.71a57.48 57.48 0 0 0-5.43 3.63c-2.25 1.81-3.16 3.62-2.25 5.88a28.76 28.76 0 0 1 2.25 9.06c13.56 35.33 13.56 62.49 0 82-14 18.57-37.51 28.08-70 28.08s-70.06-9.06-112.55-27.17l-2.71-0.91a25.6 25.6 0 0 0-6.33-1.81 11.51 11.51 0 0 0-6.78-0.45 5.7 5.7 0 0 0-4.52 3.17c-0.9 1.81-0.9 5 0.45 9.05 14 44.38 10.85 76.54-9 96-22.14 22.65-60.11 23.55-112.54 3.17C327.54 588.46 275.57 552.23 224 500.6c-38.87-39.4-69.16-78.8-90.4-118.65S102 304.51 102 269.19c0-33.06 9.94-63.4 29.83-91.94q29.83-42.11 78.65-69.28c32.09-18.12 69.15-32.16 109.83-42.57A505.15 505.15 0 0 1 446 50c42.94 0.45 84.52 5 123.84 14.49 39.78 9.51 74.13 22.19 103.51 38a383.85 383.85 0 0 1 77.29 53.89c21.7 19.93 38.42 41.22 49.72 63 11.3 22.19 16.72 43.48 16.72 64.31a98.75 98.75 0 0 1-15.85 53.88zM615.46 163.22c-44.74-36.69-101.24-58-169-65.21-44.75-4.53-86.33-1.36-125.66 9.5s-71 27.63-95.37 50.27-38 48.91-40.68 78.35c-4.52 44.83 15.82 85.59 60.57 121.82 44.75 36.68 101.25 58 169 65.21 44.74 4.53 86.33 1.36 125.65-9.05 39.32-10.87 71-27.63 95.37-50.27s38-48.91 40.68-78.35c4.53-44.83-15.81-85.59-60.56-122.27zM783.15 570.34c12.66-14.49 21.25-31.24 24.86-49.81s2.71-36.68-3.16-53.89c-2.26-7.25-6.78-12.23-13.56-15.85-6.78-3.17-13.56-4.08-20.34-1.81a24.17 24.17 0 0 0-15.37 13.58c-3.16 6.79-4.07 13.59-1.81 20.38 5.88 19.48 2.26 36.23-10.85 51.17q-20.32 21.75-48.81 16.31a28.36 28.36 0 0 0-20.79 3.58c-6.33 4.08-10.4 9.51-11.3 17.21-1.36 7.25-0.45 14 3.62 20.38s9.49 10.42 16.72 11.77a105.3 105.3 0 0 0 100.79-33.06zM865.87 645.52a210 210 0 0 0 51.52-102.35c7.69-38.94 5.88-75.63-6.32-111a33 33 0 0 0-15.37-18.57c-7.68-4.07-15.37-4.53-24-1.81a29.94 29.94 0 0 0-18.08 15.85c-4.06 7.7-4.52 15.4-2.26 24 8.59 24.91 10 51.63 4.52 79.25a147.67 147.67 0 0 1-36.61 72.46c-19 21.29-41.58 35.78-67.8 43.93a156.47 156.47 0 0 1-79.1 4.08 30.24 30.24 0 0 0-23.95 4.53c-7.23 4.52-11.75 11.32-13.56 19.92s-0.45 16.31 4.52 23.55A29.77 29.77 0 0 0 659.31 713c37.51 8.15 74.58 6.34 111.64-5.44 36.61-11.77 68.25-32.15 94.92-62z"  horiz-adv-x="1024" />

    
    <glyph glyph-name="dangao" unicode="&#58891;" d="M776.192 354.816h-440.32V415.232c0 11.776 9.216 20.992 20.992 20.992h311.296c11.776 0 20.992-9.216 20.992-20.992v-24.064c0-11.264 9.728-20.992 20.992-20.992s20.992 9.216 20.992 20.992v24.064c0 34.816-28.16 62.976-62.976 62.976H356.864c-34.816 0-62.976-28.16-62.976-62.976v-60.416h-45.568c-23.04 0-41.984-18.944-41.984-41.984v-232.448c0-23.04 18.944-41.984 41.984-41.984h527.872c23.04 0 41.984 18.944 41.984 41.984v232.448c-0.512 23.04-18.944 41.984-41.984 41.984z m-0.512-273.92h-527.36v231.936h527.36v-231.936z m-276.48 420.352c5.12-0.512 10.24-1.024 15.36-1.024 46.592 0 80.384 27.648 85.504 70.656 3.072 25.6-2.56 50.176-17.408 73.216-13.312 20.992-33.28 40.448-60.928 58.88-12.8 8.704-27.136 16.896-42.496 24.064-6.144 3.072-13.824 2.56-19.968-1.024-6.144-3.584-9.216-10.24-9.216-17.408 1.024-31.744-4.608-82.944-9.216-118.272-3.072-23.552-1.024-40.96 5.632-54.784 7.168-13.312 20.992-30.208 52.736-34.304z m-17.408 83.968c3.072 26.112 7.168 60.416 8.704 90.624l9.216-6.144c22.528-14.848 38.912-30.72 49.152-46.592 9.728-15.36 13.312-30.72 11.264-46.592-1.536-11.264-6.144-19.968-13.312-26.112-7.68-6.144-18.944-9.728-32.256-9.728-3.584 0-7.168 0-10.752 0.512-15.872 2.048-26.624 6.656-22.016 44.032zM710.144 249.344s-70.144 13.312-197.632 13.312-198.656-13.312-198.656-13.312c-11.264 0-20.992-8.704-21.504-20.48-0.512-12.288 9.216-22.016 20.992-22.016l46.592 17.408c19.968 7.68 41.984 6.656 61.44-2.56l32.768-15.36 27.648 13.312c21.504 10.24 46.592 10.24 68.096 0l27.648-13.312 29.184 13.824c19.968 9.728 43.52 10.752 64.512 2.048l39.936-15.872c11.776 0 21.504 9.728 20.992 22.016-0.512 12.288-10.24 20.992-22.016 20.992z"  horiz-adv-x="1024" />

    
    <glyph glyph-name="yanjing-" unicode="&#59242;" d="M512 696.5C192.84 696.5 0 371.52 0 371.52s222.76-315.02 512-315.02 512 315.02 512 315.02S831.16 696.5 512 696.5z m329.14-444.36c-106.38-89.54-219.42-146-332.46-146s-226 53.06-332.46 146c-36.58 33.16-73.14 66.32-103.06 102.8-6.64 6.64-10 13.26-16.62 19.9 3.32 6.64 10 13.26 13.3 19.9a714.32 714.32 0 0 0 96.42 106.12C269.3 593.7 382.34 650 508.68 650S748 593.7 851.12 500.86c36.58-33.16 66.5-69.64 96.42-106.12 3.32-6.64 10-13.26 13.3-19.9-3.32-6.64-10-13.26-16.62-19.9-29.94-33.16-63.18-69.64-103.08-102.8zM512 568.5a179.2 179.2 0 1 1 179.2-179.2c0 98.06-81.2 179.2-179.2 179.2z m0-311.06A128.48 128.48 0 1 0 640.48 386c0-67.7-57.48-128.56-128.48-128.56z"  horiz-adv-x="1024" />

    
    <glyph glyph-name="xing" unicode="&#58634;" d="M206.70864724-110.89335097000003c-7.14131795 0-13.74703814 3.21359357-18.38889473 8.56958237-4.64185661 5.35598881-6.42718576 12.49730677-5.35598883 19.63862473l56.05934813 327.07237273L1.39574867 475.7659393c-6.60571881 6.42718576-8.9266471 15.88943339-6.07011964 24.63754743s10.35491153 14.99676813 19.46009168 16.42503117l328.32210411 47.66830017 146.7540891 297.61443564c4.10625744 8.21251628 12.49730677 13.38997203 21.60248692 13.38997064s17.49622948-5.17745577 21.60248831-13.38997064L679.82097824 564.49681807l328.50063578-47.66830017c9.10518015-1.24973136 16.60356421-7.67691711 19.46009305-16.42503117 2.85652747-8.74811542 0.53559916-18.21036169-6.07012101-24.63754743L784.08422293 244.20869582l56.05934812-327.07237274c1.6067961-9.10518015-2.14239525-18.21036169-9.64077932-23.5663505s-17.13916337-6.07012102-25.35167964-1.78532916l-293.68671125 154.43100622-293.68670985-154.43100622c-3.39212662-1.78532915-7.14131795-2.6779944-11.06904375-2.67799439zM69.95240357 476.30153707L281.69248788 269.91744157000005c5.71305491-5.53452187 8.21251628-13.5685051 6.96278492-21.24542082l-49.98922709-291.36578295 261.72931279 137.4703759c6.96278491 3.74919273 15.35383423 3.74919273 22.31661913 0l261.7293114-137.64890895-49.98922709 291.36578293c-1.24973136 7.85545018 1.24973136 15.71090034 6.96278491 21.24542084l211.74008432 206.38409689-292.61551293 42.49084301c-7.85545018 1.07119831-14.63970202 6.07012102-18.03182864 13.21143761l-130.86465571 265.12143802-130.86465569-265.12143802c-3.57065967-7.14131795-10.35491153-11.96170762-18.03182865-13.21143761l-292.79404598-42.31231135z m0 0"  horiz-adv-x="1024" />

    
    <glyph glyph-name="shafa" unicode="&#58954;" d="M896 576h-21.3V682.7c-0.6 65.3-52.5 107.2-117.7 106.7H596.6c-37.3 0.1-61.9-13-84.6-42.7-22.7 29.7-47.3 42.7-84.6 42.7H267c-65.3 0.5-117.2-41.4-117.7-106.7V576H128c-65.3 0.5-63.5-52-64-117.4v-352h85.3v-128h256v128h213.3v-128h256v128H960v352c-0.5 65.4 1.3 117.9-64 117.4z m-362.8 97.3c0.2 19.6 8 38.2 21.9 52 13.9 13.7 32.7 21.3 52.2 21.2h150.4c19.5 0.2 38.3-7.5 52.2-21.2 13.9-13.7 21.8-32.4 21.9-52v-310.8H533.2V673.3z m-341 0c0.1 19.6 7.7 38.2 20.9 52 13.3 13.7 31.2 21.3 49.8 21.2H420c18.6 0.2 36.5-7.5 49.8-21.2 13.3-13.7 20.8-32.4 20.9-52v-310.8H192.2V673.3zM192 320h640v-85.3H192V320z m170.5-298.4H192.3v85.2h170.3v-85.2z m469.2 0H661.5v85.2h170.2v-85.2zM917 149H107V462.7c0.3 39.2-18.4 71 21 70.7h21.3V192h725.3V533.4H896c39.4 0.3 20.7-31.5 21-70.7V149z m-4.6-4"  horiz-adv-x="1024" />

    
    <glyph glyph-name="shang-copy" unicode="&#58652;" d="M120.02028405 135.83830787c-12.3900258 0-16.04191826 7.79053132-8.10898773 17.31056576l385.46301029 462.65762197c7.93293053 9.52132898 20.91197123 9.52132898 28.84360722 1e-8l385.4630103-462.65762198c7.93293053-9.52132898 4.28362715-17.31056577-8.10898774-17.31056576l-783.55165234 0z"  horiz-adv-x="1024" />

    
    <glyph glyph-name="qicheqianlian-1-copy" unicode="&#58627;" d="M908.629 152.235H257.877c-19.2853 0-37.376 7.50933-50.8587 21.1627-13.4827 13.6533-20.992 31.5733-20.8213 50.8587l2.38933 479.232c0 19.1147-6.656 31.9147-39.7653 37.2053h-0.170666l-95.5733 16.384c-9.216 1.536-15.5307 10.4107-13.9947 19.6267 1.536 9.216 10.4107 15.5307 19.6267 13.9947l95.4027-16.384c45.3973-7.168 68.4373-31.0613 68.4373-70.9973L220.16 223.91499999999996c0-10.0693 3.75467-19.456 10.9227-26.4533 7.168-7.168 16.5547-11.0933 26.624-11.0933h650.752c9.38667 0 17.0667-7.68 17.0667-17.0667s-7.50933-17.0667-16.896-17.0667ZM859.989 250.197l-602.624 1.87733c-18.944 0.170667-36.6933 7.50933-50.0053 20.992-13.312 13.4827-20.48 31.232-20.48 50.176l1.87733 353.963L870.571 626.347c30.8907-1.19467 55.1253-26.2827 55.1253-57.1733V315.73299999999994c0-36.1813-29.5253-65.536-65.7067-65.536ZM257.707 286.20799999999997l602.453-1.87733c17.408 0 31.5733 14.1653 31.5733 31.4027V569.173c0 12.4587-9.89867 22.6987-22.3573 23.04h-0.682667l-645.632 48.128-1.536-317.44c0-9.728 3.75467-18.944 10.5813-25.9413 6.48533-6.82667 15.7013-10.752 25.6-10.752ZM324.096 95.91499999999996m-63.6587 0a63.6587 63.6587 0 1 1 127.317 0 63.6587 63.6587 0 1 1-127.317 0ZM324.096 15.188999999999964c-44.544 0-80.7253 36.1813-80.7253 80.7253s36.1813 80.7253 80.7253 80.7253c44.544 0 80.7253-36.1813 80.7253-80.7253s-36.1813-80.7253-80.7253-80.7253Zm0 127.317c-25.7707 0-46.592-20.8213-46.592-46.592s20.8213-46.592 46.592-46.592 46.592 20.8213 46.592 46.592-20.8213 46.592-46.592 46.592ZM812.715 95.91499999999996m-63.6587 0a63.6587 63.6587 0 1 1 127.317 0 63.6587 63.6587 0 1 1-127.317 0ZM812.715 15.188999999999964c-44.544 0-80.7253 36.1813-80.7253 80.7253s36.1813 80.7253 80.7253 80.7253 80.7253-36.1813 80.7253-80.7253-36.1813-80.7253-80.7253-80.7253Zm0 127.317c-25.7707 0-46.592-20.8213-46.592-46.592s20.8213-46.592 46.592-46.592 46.592 20.8213 46.592 46.592-20.8213 46.592-46.592 46.592ZM710.315 478.037H362.496c-9.38667 0-17.0667 7.68-17.0667 17.0667s7.68 17.0667 17.0667 17.0667h347.819c9.38667 0 17.0667-7.68 17.0667-17.0667s-7.68-17.0667-17.0667-17.0667ZM710.315 379.904H362.496c-9.38667 0-17.0667 7.68-17.0667 17.0667s7.68 17.0667 17.0667 17.0667h347.819c9.38667 0 17.0667-7.68 17.0667-17.0667s-7.68-17.0667-17.0667-17.0667Z"  horiz-adv-x="1024" />

    


  </font>
</defs>
</svg>
